<svg width="200" height="56" viewBox="0 0 200 56" fill="none" xmlns="http://www.w3.org/2000/svg">
<path d="M48.7038 34.9824L36.1094 20.4957L39.9488 20.4831L52.5389 34.9824" fill="url(#paint0_linear_492_22863)"/>
<path d="M42.7 34.9831L30.1055 20.4963H34.9938L47.6227 34.9844L42.7 34.9831Z" fill="url(#paint1_linear_492_22863)"/>
<path d="M49.5184 20.4956L45.2344 25.3015L47.0335 27.3711L53.1624 20.4956H49.5184Z" fill="url(#paint2_linear_492_22863)"/>
<path d="M53.572 15.2569H34.1044L36.1385 19.2155H53.2155C53.2155 19.2155 60.9697 19.6445 60.9697 27.9777C60.9697 36.3111 51.734 36.1627 51.734 36.1627L39.2337 36.1676L40.8222 34.3287L39.0134 32.2481L31.7305 40.4102H53.2155C53.2155 40.4102 65.5348 39.7763 65.5348 27.926C65.5348 16.0758 53.572 15.2569 53.572 15.2569Z" fill="url(#paint3_linear_492_22863)"/>
<path d="M53.5244 10.6686H32.3753L34.4094 14.6273H53.1681C53.1681 14.6273 66.3378 14.5092 66.3378 27.9786C66.3378 41.4482 51.536 41.1117 51.536 41.1117H29.8405L38.4187 31.563L35.5636 28.2789L20.4727 45.1855L53.5244 45.0133C63.0085 45.0133 70.6968 37.3249 70.6968 27.841C70.6968 18.3568 63.0085 10.6686 53.5244 10.6686Z" fill="url(#paint4_linear_492_22863)"/>
<path d="M42.5211 20.4964L41.7812 21.3262L44.6101 24.5801L48.2502 20.4964H42.5211Z" fill="url(#paint5_linear_492_22863)"/>
<path d="M87.5498 21.3897C88.1961 20.7697 88.5197 19.8924 88.5197 18.7571C88.5197 17.6092 88.1961 16.7219 87.5498 16.0951C86.9032 15.4685 86.0124 15.155 84.8777 15.155H83.5318V22.32H84.8777C86.0124 22.32 86.9032 22.01 87.5498 21.3897ZM89.0245 12.6709C90.1261 13.2583 90.974 14.0796 91.5677 15.135C92.1617 16.1908 92.4586 17.3983 92.4586 18.7571C92.4586 20.1032 92.1582 21.304 91.5579 22.3594C90.9573 23.4154 90.1062 24.2432 89.0046 24.8435C87.9027 25.4442 86.6261 25.7441 85.1746 25.7441H79.6523V11.7901H85.1746C86.6392 11.7901 87.9225 12.0839 89.0245 12.6709Z" fill="white"/>
<path d="M98.0748 17.9458H99.9949C100.523 17.9458 100.918 17.8202 101.182 17.5696C101.446 17.3192 101.578 16.9559 101.578 16.4809C101.578 16.0326 101.443 15.6795 101.173 15.422C100.902 15.1648 100.509 15.0362 99.9949 15.0362H98.0748V17.9458ZM101.262 25.7441L98.4904 20.5979H98.0748V25.7441H94.1953V11.7901H100.312C101.433 11.7901 102.383 11.9849 103.162 12.374C103.94 12.7633 104.527 13.2977 104.923 13.9773C105.319 14.657 105.517 15.419 105.517 16.2634C105.517 17.2136 105.256 18.0481 104.735 18.7672C104.214 19.4864 103.452 19.9976 102.449 20.301L105.596 25.7441H101.262Z" fill="white"/>
<path d="M116.319 21.3106C116.893 20.6641 117.18 19.7997 117.18 18.7176C117.18 17.6092 116.893 16.7351 116.319 16.0951C115.745 15.4551 114.963 15.135 113.974 15.135C112.971 15.135 112.186 15.4551 111.618 16.0951C111.051 16.7351 110.767 17.6092 110.767 18.7176C110.767 19.8131 111.051 20.6805 111.618 21.3205C112.186 21.9606 112.971 22.2803 113.974 22.2803C114.963 22.2803 115.745 21.9571 116.319 21.3106ZM110.371 24.9623C109.276 24.3488 108.408 23.4976 107.769 22.4091C107.128 21.3205 106.809 20.0902 106.809 18.7176C106.809 17.3454 107.128 16.1148 107.769 15.0261C108.408 13.9375 109.276 13.0898 110.371 12.4827C111.467 11.876 112.667 11.5721 113.974 11.5721C115.293 11.5721 116.497 11.876 117.586 12.4827C118.674 13.0898 119.536 13.9375 120.169 15.0261C120.803 16.1148 121.119 17.3454 121.119 18.7176C121.119 20.0902 120.803 21.3205 120.169 22.4091C119.536 23.4976 118.671 24.3488 117.576 24.9623C116.48 25.5759 115.28 25.8828 113.974 25.8828C112.667 25.8828 111.467 25.5759 110.371 24.9623Z" fill="white"/>
<path d="M129.929 16.4415C129.929 15.4253 129.382 14.9175 128.287 14.9175H126.743V17.9458H128.287C129.382 17.9458 129.929 17.4443 129.929 16.4415ZM133.304 18.7472C132.915 19.44 132.327 19.9943 131.542 20.4099C130.757 20.8257 129.797 21.0335 128.663 21.0335H126.743V25.7441H122.863V11.7901H128.663C129.784 11.7901 130.738 11.988 131.523 12.3839C132.308 12.7796 132.898 13.3273 133.294 14.0266C133.69 14.7262 133.888 15.5309 133.888 16.4415C133.888 17.2861 133.693 18.0545 133.304 18.7472Z" fill="white"/>
<path d="M136.714 24.7247C135.671 23.9529 135.11 22.8478 135.031 21.4094H139.168C139.208 21.8978 139.353 22.2542 139.604 22.4782C139.854 22.7027 140.178 22.8147 140.573 22.8147C140.929 22.8147 141.223 22.7257 141.454 22.5476C141.685 22.3695 141.8 22.1219 141.8 21.8053C141.8 21.3965 141.609 21.0799 141.226 20.8553C140.844 20.631 140.224 20.3803 139.366 20.1032C138.455 19.7997 137.72 19.5064 137.159 19.2224C136.598 18.9387 136.11 18.5233 135.694 17.9756C135.279 17.4278 135.071 16.712 135.071 15.8278C135.071 14.9306 135.295 14.1622 135.744 13.522C136.192 12.8819 136.813 12.397 137.604 12.0673C138.396 11.7375 139.293 11.5721 140.296 11.5721C141.919 11.5721 143.216 11.9518 144.186 12.7105C145.156 13.4695 145.673 14.5347 145.739 15.9069H141.523C141.51 15.4847 141.381 15.1681 141.137 14.9569C140.893 14.7461 140.58 14.6403 140.197 14.6403C139.907 14.6403 139.669 14.7262 139.485 14.8975C139.3 15.0693 139.208 15.3132 139.208 15.6297C139.208 15.8942 139.31 16.1216 139.514 16.3129C139.719 16.5041 139.973 16.6691 140.276 16.8076C140.58 16.9463 141.029 17.1211 141.622 17.3321C142.506 17.6357 143.236 17.9357 143.809 18.2326C144.383 18.5296 144.878 18.9453 145.294 19.4796C145.71 20.014 145.917 20.6903 145.917 21.5084C145.917 22.3399 145.71 23.0853 145.294 23.745C144.878 24.4051 144.278 24.9262 143.493 25.3088C142.707 25.6916 141.781 25.8828 140.712 25.8828C139.089 25.8828 137.756 25.4968 136.714 24.7247Z" fill="white"/>
<path d="M160.208 11.7901V25.7441H156.329V20.1426H151.598V25.7441H147.719V11.7901H151.598V17.0352H156.329V11.7901H160.208Z" fill="white"/>
<path d="M166.301 11.7901V25.7441H162.422V11.7901H166.301Z" fill="white"/>
<path d="M175.59 16.4415C175.59 15.4253 175.042 14.9175 173.947 14.9175H172.403V17.9458H173.947C175.042 17.9458 175.59 17.4443 175.59 16.4415ZM178.964 18.7472C178.575 19.44 177.987 19.9943 177.203 20.4099C176.417 20.8257 175.458 21.0335 174.323 21.0335H172.403V25.7441H168.523V11.7901H174.323C175.444 11.7901 176.398 11.988 177.183 12.3839C177.968 12.7796 178.559 13.3273 178.954 14.0266C179.35 14.7262 179.548 15.5309 179.548 16.4415C179.548 17.2861 179.353 18.0545 178.964 18.7472Z" fill="white"/>
<path d="M86.368 41.0547L84.6457 36.0752L82.9234 41.0547H86.368ZM87.016 42.9643H82.2755L81.4911 45.2324H78.9844L83.2645 33.313H86.044L90.3241 45.2324H87.8004L87.016 42.9643Z" fill="white"/>
<path d="M92.1407 36.1171C92.6693 35.1906 93.391 34.4691 94.3063 33.9515C95.2212 33.4344 96.2474 33.1758 97.3841 33.1758C98.7144 33.1758 99.8793 33.5166 100.88 34.1987C101.88 34.881 102.579 35.8246 102.977 37.0295H100.232C99.959 36.4611 99.5755 36.0348 99.0809 35.7505C98.5864 35.4665 98.0151 35.3243 97.3671 35.3243C96.6735 35.3243 96.0567 35.4863 95.517 35.8102C94.9769 36.1342 94.5561 36.5919 94.2552 37.1831C93.9538 37.7743 93.8032 38.4677 93.8032 39.2634C93.8032 40.0476 93.9538 40.7383 94.2552 41.3351C94.5561 41.932 94.9769 42.3924 95.517 42.7164C96.0567 43.0403 96.6735 43.2025 97.3671 43.2025C98.0151 43.2025 98.5864 43.0574 99.0809 42.7675C99.5755 42.4776 99.959 42.0487 100.232 41.4802H102.977C102.579 42.6966 101.883 43.643 100.888 44.3193C99.8937 44.9958 98.7255 45.334 97.3841 45.334C96.2474 45.334 95.2212 45.0756 94.3063 44.558C93.391 44.0409 92.6693 43.3218 92.1407 42.4008C91.6121 41.4802 91.3477 40.4343 91.3477 39.2634C91.3477 38.0926 91.6121 37.0439 92.1407 36.1171Z" fill="white"/>
<path d="M111.677 41.0547L109.954 36.0752L108.232 41.0547H111.677ZM112.325 42.9643H107.584L106.8 45.2324H104.293L108.573 33.313H111.352L115.633 45.2324H113.109L112.325 42.9643Z" fill="white"/>
<path d="M124.209 42.1799C124.891 41.498 125.232 40.5373 125.232 39.2983C125.232 38.0592 124.891 37.0899 124.209 36.3908C123.527 35.6916 122.56 35.3422 121.31 35.3422H119.622V43.2032H121.31C122.56 43.2032 123.527 42.862 124.209 42.1799ZM124.695 34.063C125.644 34.552 126.377 35.2483 126.895 36.152C127.412 37.0558 127.671 38.1044 127.671 39.2983C127.671 40.4917 127.412 41.5348 126.895 42.4272C126.377 43.3199 125.644 44.0104 124.695 44.499C123.746 44.988 122.646 45.2324 121.395 45.2324H117.234V33.33H121.395C122.646 33.33 123.746 33.5744 124.695 34.063Z" fill="white"/>
<path d="M131.848 35.2569V38.2408H135.856V40.1336H131.848V43.2884H136.367V45.2324H129.461V33.313H136.367V35.2569H131.848Z" fill="white"/>
<path d="M151.512 33.33V45.2324H149.125V37.4907L145.936 45.2324H144.128L140.922 37.4907V45.2324H138.535V33.33H141.247L145.032 42.1799L148.818 33.33H151.512Z" fill="white"/>
<path d="M163.324 33.33L159.3 41.0887V45.2324H156.912V41.0887L152.871 33.33H155.565L158.123 38.7695L160.664 33.33H163.324Z" fill="white"/>
<path d="M176.059 45.2324L173.723 41.8391L171.728 45.2324H167.925L171.83 39.0766L167.789 33.2106H171.728L173.996 36.5185L175.94 33.2106H179.743L175.889 39.2642L179.998 45.2324H176.059Z" fill="white"/>
<defs>
<linearGradient id="paint0_linear_492_22863" x1="36.0394" y1="27.882" x2="52.4198" y2="27.8219" gradientUnits="userSpaceOnUse">
<stop stop-color="#00C7CC"/>
<stop offset="1" stop-color="#009CD8"/>
</linearGradient>
<linearGradient id="paint1_linear_492_22863" x1="30.0309" y1="27.8894" x2="47.4958" y2="27.8211" gradientUnits="userSpaceOnUse">
<stop stop-color="#00C7CC"/>
<stop offset="1" stop-color="#009CD8"/>
</linearGradient>
<linearGradient id="paint2_linear_492_22863" x1="45.2006" y1="24.0041" x2="53.105" y2="23.9746" gradientUnits="userSpaceOnUse">
<stop stop-color="#00C7CC"/>
<stop offset="1" stop-color="#009CD8"/>
</linearGradient>
<linearGradient id="paint3_linear_492_22863" x1="31.5865" y1="28.0923" x2="65.2897" y2="27.9458" gradientUnits="userSpaceOnUse">
<stop stop-color="#00C7CC"/>
<stop offset="1" stop-color="#009CD8"/>
</linearGradient>
<linearGradient id="paint4_linear_492_22863" x1="20.2588" y1="28.2822" x2="70.3325" y2="28.0464" gradientUnits="userSpaceOnUse">
<stop stop-color="#00C7CC"/>
<stop offset="1" stop-color="#009CD8"/>
</linearGradient>
<linearGradient id="paint5_linear_492_22863" x1="41.7537" y1="22.5802" x2="48.2033" y2="22.5472" gradientUnits="userSpaceOnUse">
<stop stop-color="#00C7CC"/>
<stop offset="1" stop-color="#009CD8"/>
</linearGradient>
</defs>
</svg>
